<svg xmlns="http://www.w3.org/2000/svg" viewBox="0 0 219.23 33.25" width="470px"><defs><style>.cls-1{fill:#23252d;}.cls-2{fill:#fff;}.cls-3{fill:#ff3600;}</style></defs><title>3</title><g id="Layer_2" data-name="Layer 2"><rect class="cls-1" x="85.37" width="133.86" height="33.25" rx="5.21" ry="5.21"></rect></g><g id="Layer_1" data-name="Layer 1"><g id="Слой_3" data-name="Слой 3"><polygon class="cls-2" points="142.12 21.84 144.67 21.84 144.67 13.04 142.12 13.04 142.12 13.04 139.77 17.49 137.47 13.04 137.47 13.04 134.02 13.04 134.92 13.84 134.92 21.84 137.47 21.84 137.47 16.49 139.77 20.74 142.12 16.49 142.12 21.84"></polygon><path class="cls-2" d="M154.6,17.2a1.82,1.82,0,0,0,.1-.7V15.15a2,2,0,0,0-.15-.75,1.73,1.73,0,0,0-.35-.6,2,2,0,0,0-.5-.4,1.33,1.33,0,0,0-.6-.15h-7.7l.9.8v8h7.15a1.33,1.33,0,0,0,.6-.15,1.36,1.36,0,0,0,.5-.4,2.36,2.36,0,0,0,.35-.6,1.94,1.94,0,0,0,.1-.75V18.6A1.58,1.58,0,0,0,154.6,17.2ZM151.75,15a.36.36,0,0,1,.3.15.57.57,0,0,1,.15.4v.6a.66.66,0,0,1-.15.4.43.43,0,0,1-.3.15H148.9V15.05h2.85Zm.8,4.75a.45.45,0,0,1-.15.35.36.36,0,0,1-.3.15h-3.2v-1.8h3.2a.3.3,0,0,1,.3.15.57.57,0,0,1,.15.4Z" transform="translate(0.16 -0.21)"></path><path class="cls-2" d="M165,19.2a2.15,2.15,0,0,0,.4-1.3V15.15a2,2,0,0,0-.15-.75,1.73,1.73,0,0,0-.35-.6,2,2,0,0,0-.5-.4,1.38,1.38,0,0,0-.65-.15h-7.65l.9.8v8h2.55V19.75h2.6a.38.38,0,0,1,.4.35l.65,1.9h2.75Zm-2.15-1.7a.57.57,0,0,1-.15.4.43.43,0,0,1-.3.15H159.5V15h2.85a.36.36,0,0,1,.3.15.57.57,0,0,1,.15.4Z" transform="translate(0.16 -0.21)"></path><polygon class="cls-2" points="167.42 13.89 167.42 21.84 174.77 21.84 174.77 20.04 169.97 20.04 169.97 18.49 173.47 18.49 173.47 16.69 169.97 16.69 169.97 15.09 169.97 14.79 174.77 14.79 174.77 13.04 166.52 13.04 167.42 13.89"></polygon><polygon class="cls-2" points="183.97 21.79 183.97 20.04 179.17 20.04 179.17 13.04 175.72 13.04 176.62 13.84 176.62 21.79 183.97 21.79"></polygon><polygon class="cls-2" points="188.37 13.04 184.92 13.04 185.82 13.89 185.82 21.84 193.17 21.84 193.17 20.04 188.37 20.04 188.37 13.04"></polygon><polygon class="cls-2" points="195.02 13.89 195.02 21.84 197.57 21.84 197.57 13.04 194.12 13.04 195.02 13.89"></polygon><path class="cls-2" d="M207.2,14.4a1.73,1.73,0,0,0-.35-.6,2,2,0,0,0-.5-.4,1.38,1.38,0,0,0-.65-.15h-5.15a1.38,1.38,0,0,0-.65.15,2,2,0,0,0-.5.4,2.36,2.36,0,0,0-.35.6,2,2,0,0,0-.15.75v5a2,2,0,0,0,.15.75,1.73,1.73,0,0,0,.35.6,2,2,0,0,0,.5.4,1.38,1.38,0,0,0,.65.15h5.15a1.38,1.38,0,0,0,.65-.15,2,2,0,0,0,.5-.4,2.36,2.36,0,0,0,.35-.6,2,2,0,0,0,.15-.75v-5A1.67,1.67,0,0,0,207.2,14.4Zm-2.4,5.3a.72.72,0,0,1-.1.35.43.43,0,0,1-.3.15H202a.36.36,0,0,1-.3-.15.45.45,0,0,1-.15-.35V15h2.85a.36.36,0,0,1,.3.15.54.54,0,0,1,.1.4V19.7Z" transform="translate(0.16 -0.21)"></path><path class="cls-2" d="M130.35,13.25v6.5a.72.72,0,0,1-.1.35.43.43,0,0,1-.3.15H127.5v-.5h0v-6.5h-3.45l.9.85v6a2,2,0,0,0,.15.75,1.73,1.73,0,0,0,.35.6,2,2,0,0,0,.5.4,1.38,1.38,0,0,0,.65.15h4.75a1.19,1.19,0,0,0,.6-.15,2,2,0,0,0,.5-.4,1.73,1.73,0,0,0,.35-.6,1.94,1.94,0,0,0,.1-.75V13.3h-2.55Z" transform="translate(0.16 -0.21)"></path><polygon class="cls-3" points="113.07 25.54 113.07 7.89 106.07 7.89 106.07 7.89 103.52 7.89 103.52 7.89 101.17 7.89 101.17 7.89 101.17 7.89 101.17 8.04 101.12 24.64 98.82 24.64 98.82 7.89 96.42 7.89 94.62 7.89 96.42 9.34 96.42 26.94 103.52 26.94 103.52 10.49 106.07 10.49 106.07 26.94 108.42 26.94 108.42 10.49 110.87 10.49 110.87 26.94 113.07 26.94 113.07 26.94 114.87 26.94 113.07 25.54"></polygon></g><path d="M3.86,18.45a.81.81,0,0,0-.28-.63,3.18,3.18,0,0,0-.71-.43c-.29-.14-.59-.27-.93-.41A4.37,4.37,0,0,1,1,16.46a2.72,2.72,0,0,1-.71-.76A2.14,2.14,0,0,1,0,14.54a2.69,2.69,0,0,1,.2-1.07,2,2,0,0,1,.59-.75,2.56,2.56,0,0,1,.89-.44,4.12,4.12,0,0,1,1.15-.14,7.54,7.54,0,0,1,1.38.12,3.71,3.71,0,0,1,1.07.37L4.79,14A2.8,2.8,0,0,0,4,13.7a4.56,4.56,0,0,0-1.14-.14,1.46,1.46,0,0,0-.88.23.74.74,0,0,0-.31.61A.76.76,0,0,0,2,15a3.25,3.25,0,0,0,.7.45l.93.42a4.86,4.86,0,0,1,.92.52,2.58,2.58,0,0,1,.71.76,2,2,0,0,1,.28,1.12,2.76,2.76,0,0,1-.22,1.16,2.37,2.37,0,0,1-.62.81,2.89,2.89,0,0,1-1,.48,4.87,4.87,0,0,1-1.25.15A6.22,6.22,0,0,1,.85,20.7a4.73,4.73,0,0,1-1-.33L.37,19a2.82,2.82,0,0,0,.34.16,4.29,4.29,0,0,0,.47.16l.56.12a4.08,4.08,0,0,0,.61,0,2.17,2.17,0,0,0,1.12-.24A.84.84,0,0,0,3.86,18.45Z" transform="translate(0.16 -0.21)"></path><path d="M8.06,14.7v3.41a2.49,2.49,0,0,0,.17,1.06.71.71,0,0,0,.68.32,1.09,1.09,0,0,0,.74-.26,1.74,1.74,0,0,0,.44-.65V14.7h1.56v4.18c0,.33,0,.65,0,1a6.21,6.21,0,0,0,.15.85H10.66l-.27-.88h-.05a2.31,2.31,0,0,1-.77.75,2.2,2.2,0,0,1-1.16.3,2.57,2.57,0,0,1-.82-.12,1.36,1.36,0,0,1-.6-.39,2,2,0,0,1-.37-.75,4.78,4.78,0,0,1-.12-1.17V14.7Z" transform="translate(0.16 -0.21)"></path><path d="M13,14.7h1.14l.18.72h.05a2.13,2.13,0,0,1,.74-.67,2.32,2.32,0,0,1,1-.21,2,2,0,0,1,1.69.71,3.7,3.7,0,0,1,.56,2.3,4.91,4.91,0,0,1-.18,1.38A2.74,2.74,0,0,1,17.7,20a2.31,2.31,0,0,1-.86.66,2.72,2.72,0,0,1-1.17.23,3.44,3.44,0,0,1-.62-.05,2.34,2.34,0,0,1-.48-.18V23.1H13Zm2.68,1.16a1,1,0,0,0-.71.22,1.49,1.49,0,0,0-.41.69v2.49a1.53,1.53,0,0,0,.37.21,1.29,1.29,0,0,0,.52.08,1.16,1.16,0,0,0,1-.47,2.83,2.83,0,0,0,.34-1.57,2.3,2.3,0,0,0-.27-1.22A.91.91,0,0,0,15.69,15.86Z" transform="translate(0.16 -0.21)"></path><path d="M19.49,14.7h1.14l.18.72h.05a2.13,2.13,0,0,1,.74-.67,2.32,2.32,0,0,1,1-.21,2,2,0,0,1,1.69.71,3.7,3.7,0,0,1,.56,2.3,4.91,4.91,0,0,1-.18,1.38A2.74,2.74,0,0,1,24.18,20a2.31,2.31,0,0,1-.86.66,2.72,2.72,0,0,1-1.17.23,3.44,3.44,0,0,1-.62-.05,2.34,2.34,0,0,1-.48-.18V23.1H19.49Zm2.68,1.16a1,1,0,0,0-.71.22,1.49,1.49,0,0,0-.41.69v2.49a1.53,1.53,0,0,0,.37.21,1.29,1.29,0,0,0,.52.08,1.16,1.16,0,0,0,1-.47,2.83,2.83,0,0,0,.34-1.57A2.3,2.3,0,0,0,23,16.29.91.91,0,0,0,22.17,15.86Z" transform="translate(0.16 -0.21)"></path><path d="M25.69,17.7a3.35,3.35,0,0,1,.74-2.34,2.67,2.67,0,0,1,2.09-.82,3.21,3.21,0,0,1,1.25.22,2.37,2.37,0,0,1,.87.65,2.64,2.64,0,0,1,.52,1,4.37,4.37,0,0,1,.18,1.29,3.41,3.41,0,0,1-.74,2.35,2.65,2.65,0,0,1-2.08.82,3,3,0,0,1-1.25-.23,2.28,2.28,0,0,1-.88-.64,2.66,2.66,0,0,1-.53-1A4.4,4.4,0,0,1,25.69,17.7Zm1.6,0a3.43,3.43,0,0,0,.08.74,1.89,1.89,0,0,0,.21.58,1,1,0,0,0,.94.53,1,1,0,0,0,.91-.44,2.59,2.59,0,0,0,.3-1.41,2.71,2.71,0,0,0-.28-1.33,1,1,0,0,0-.93-.51,1,1,0,0,0-.9.43A2.36,2.36,0,0,0,27.29,17.7Z" transform="translate(0.16 -0.21)"></path><path d="M35.73,16.17a2,2,0,0,0-.67-.13,1.07,1.07,0,0,0-.7.22,1.05,1.05,0,0,0-.38.57V20.7H32.42v-6h1.21l.18.8h0a1.6,1.6,0,0,1,.55-.69,1.39,1.39,0,0,1,.82-.24,2.49,2.49,0,0,1,.7.13Z" transform="translate(0.16 -0.21)"></path><path d="M36.37,14.7h.82V13.58l1.56-.45V14.7h1.47V16H38.75v2.31a2.16,2.16,0,0,0,.13.89.47.47,0,0,0,.47.27,1.34,1.34,0,0,0,.42,0l.39-.14.27,1.2a4.09,4.09,0,0,1-.75.26,3.27,3.27,0,0,1-.88.11,1.6,1.6,0,0,1-1.22-.42,2.05,2.05,0,0,1-.39-1.4V16h-.82Z" transform="translate(0.16 -0.21)"></path><path d="M45.92,20.19a3.09,3.09,0,0,1-1,.48,4,4,0,0,1-1.31.2A2.57,2.57,0,0,1,41.5,20a3.65,3.65,0,0,1-.67-2.33,3.29,3.29,0,0,1,.76-2.37,2.78,2.78,0,0,1,2.12-.79,3.35,3.35,0,0,1,.89.12,2.16,2.16,0,0,1,.77.39,2,2,0,0,1,.54.75,3,3,0,0,1,.2,1.16,5.17,5.17,0,0,1,0,.54q0,.29-.09.6h-3.6a1.73,1.73,0,0,0,.39,1.14,1.48,1.48,0,0,0,1.15.38,2.46,2.46,0,0,0,.88-.15,2.66,2.66,0,0,0,.59-.3Zm-2.23-4.41a1.12,1.12,0,0,0-.91.37,1.77,1.77,0,0,0-.35,1h2.23a1.56,1.56,0,0,0-.2-1A.89.89,0,0,0,43.69,15.78Z" transform="translate(0.16 -0.21)"></path><path d="M52.31,18.59c0,.34,0,.67,0,1a7.86,7.86,0,0,0,.1,1.12H51.32l-.22-.78h-.05a1.78,1.78,0,0,1-.69.67,2,2,0,0,1-1.06.26,2.17,2.17,0,0,1-1.75-.74,3.57,3.57,0,0,1-.62-2.33,3.72,3.72,0,0,1,.69-2.39,2.48,2.48,0,0,1,2-.85,3.44,3.44,0,0,1,.61,0,2.9,2.9,0,0,1,.48.14V12.3h1.56Zm-2.65,1a1.05,1.05,0,0,0,.72-.22,1.16,1.16,0,0,0,.37-.64V16.14a1.18,1.18,0,0,0-.37-.19,1.58,1.58,0,0,0-.53-.07,1.17,1.17,0,0,0-1,.44,2.67,2.67,0,0,0-.33,1.53,2.44,2.44,0,0,0,.27,1.23A.91.91,0,0,0,49.66,19.55Z" transform="translate(0.16 -0.21)"></path><path d="M56.72,12.3h1.56v2.88h0a1.8,1.8,0,0,1,.65-.45,2.3,2.3,0,0,1,.88-.17,2,2,0,0,1,1.65.74,3.65,3.65,0,0,1,.57,2.25,3.45,3.45,0,0,1-.8,2.46,2.87,2.87,0,0,1-2.19.84,6.73,6.73,0,0,1-1.4-.13,4,4,0,0,1-1-.28Zm2.67,3.58a1,1,0,0,0-.7.22,1.34,1.34,0,0,0-.41.64v2.62a1.31,1.31,0,0,0,.41.13,2.42,2.42,0,0,0,.47,0,1.13,1.13,0,0,0,1-.46,2.58,2.58,0,0,0,.33-1.47C60.46,16.45,60.1,15.88,59.39,15.88Z" transform="translate(0.16 -0.21)"></path><path d="M65.19,18.08l.21.93h.08l.15-1,.91-3.36h1.61l-1.82,5.42c-.15.44-.3.85-.44,1.23a5.37,5.37,0,0,1-.46,1,2.33,2.33,0,0,1-.56.63,1.19,1.19,0,0,1-.73.22,2,2,0,0,1-1-.2l.29-1.25a.92.92,0,0,0,.36.07.76.76,0,0,0,.53-.23,1.64,1.64,0,0,0,.39-.85l-2.51-6h1.87Z" transform="translate(0.16 -0.21)"></path></g></svg>
