<?xml version="1.0" encoding="utf-8"?>
<!-- Generator: Adobe Illustrator 21.0.0, SVG Export Plug-In . SVG Version: 6.00 Build 0)  -->
<svg version="1.1" xmlns="http://www.w3.org/2000/svg" xmlns:xlink="http://www.w3.org/1999/xlink" x="0px" y="0px"
	 viewBox="0 0 566.9 566.9" style="enable-background:new 0 0 566.9 566.9;" xml:space="preserve">
<style type="text/css">
	.st0{fill:#23252D;}
	.st1{fill:#FF3600;}
	.st2{fill:#FFFFFF;}
</style>
<g id="Light_bg">
</g>
<g id="Dark">
</g>
<g id="Слой_3">
	<g>
		<g>
			<g>
				<g>
					<path class="st0" d="M195.4,131.3c0,0,0-0.1,0.1-0.1v-0.6c0,0,0-0.1-0.1-0.1c0,0,0,0-0.1,0c0,0-0.1,0-0.1,0H194l0.1,0.1v1.2
						h0.4v-0.3h0.4c0,0,0.1,0,0.1,0.1l0.1,0.3h0.4L195.4,131.3z M195.1,131.1C195.1,131.1,195,131.1,195.1,131.1l-0.5,0.1v-0.4l0,0
						h0.5c0,0,0,0,0,0.1V131.1z"/>
					<path class="st0" d="M194.8,129.7c-0.8,0-1.4,0.6-1.4,1.4c0,0.8,0.6,1.4,1.4,1.4c0.8,0,1.4-0.6,1.4-1.4
						C196.2,130.3,195.6,129.7,194.8,129.7z M194.8,132.1c-0.6,0-1-0.5-1-1c0-0.6,0.5-1.1,1-1.1c0.6,0,1.1,0.5,1.1,1.1
						C195.8,131.7,195.4,132.1,194.8,132.1z"/>
				</g>
				<polygon class="st1" points="181,127 181,58.6 153.7,58.6 153.7,58.6 143.9,58.6 143.9,58.6 134.7,58.6 134.7,58.6 134.7,58.6 
					134.7,59.2 134.6,123.5 125.6,123.5 125.6,58.6 116.3,58.6 109.4,58.6 116.3,64.1 116.3,132.5 143.9,132.5 143.9,68.6 
					153.7,68.6 153.7,132.5 162.8,132.5 162.8,68.6 172.5,68.6 172.5,132.5 181,132.5 181,132.5 187.9,132.5 				"/>
			</g>
		</g>
		<g>
			<polygon class="st0" points="107.8,166.6 112.3,166.6 112.3,151.2 107.8,151.2 107.8,151.2 103.7,159.1 99.7,151.2 99.7,151.2 
				93.6,151.2 95.2,152.7 95.2,166.6 99.7,166.6 99.7,157.3 103.7,164.8 107.8,157.3 			"/>
			<path class="st0" d="M130,158.2c0.1-0.4,0.2-0.8,0.2-1.2v-2.4c0-0.5-0.1-0.9-0.2-1.3c-0.1-0.4-0.3-0.8-0.6-1.1
				c-0.3-0.3-0.5-0.5-0.9-0.7c-0.3-0.2-0.7-0.2-1.1-0.2H114l1.6,1.4v14H128c0.4,0,0.7-0.1,1.1-0.3c0.4-0.2,0.7-0.4,0.9-0.7
				c0.3-0.3,0.5-0.7,0.6-1.1c0.1-0.4,0.2-0.8,0.2-1.3v-2.7C130.8,159.7,130.6,158.9,130,158.2z M125,154.3c0.2,0,0.4,0.1,0.6,0.2
				c0.1,0.2,0.2,0.4,0.2,0.7v1.1c0,0.3-0.1,0.5-0.2,0.7c-0.2,0.2-0.4,0.3-0.6,0.3h-5v-2.4l0-0.5H125z M126.4,162.6
				c0,0.3-0.1,0.5-0.2,0.6c-0.1,0.2-0.3,0.3-0.5,0.3H120v-3.2h5.6c0.2,0,0.4,0.1,0.5,0.3c0.2,0.2,0.2,0.4,0.2,0.7V162.6z"/>
			<path class="st0" d="M148.1,161.7c0.2-0.3,0.4-0.7,0.5-1.1c0.1-0.4,0.2-0.8,0.2-1.2v-4.8c0-0.5-0.1-0.9-0.2-1.3
				c-0.1-0.4-0.4-0.8-0.6-1.1c-0.3-0.3-0.6-0.5-0.9-0.7c-0.3-0.2-0.7-0.2-1.1-0.2h-13.5l1.6,1.4v14h4.5v-3.9h4.5
				c0.4,0,0.6,0.2,0.7,0.6l1.1,3.3h4.8L148.1,161.7z M144.3,158.7c0,0.3-0.1,0.5-0.2,0.7c-0.1,0.2-0.3,0.3-0.5,0.3h-5v-4.9l0-0.5h5
				c0.2,0,0.4,0.1,0.5,0.2c0.2,0.2,0.2,0.4,0.2,0.7V158.7z"/>
			<polygon class="st0" points="152.1,152.7 152.1,166.6 165,166.6 165,163.5 156.6,163.5 156.6,160.8 162.7,160.8 162.7,157.7 
				156.6,157.7 156.6,154.8 156.6,154.3 165,154.3 165,151.2 150.6,151.2 			"/>
			<polygon class="st0" points="181.1,166.6 181.1,163.5 172.7,163.5 172.7,151.2 166.7,151.2 168.2,152.7 168.2,166.6 			"/>
			<polygon class="st0" points="188.8,151.3 182.8,151.3 184.3,152.7 184.3,166.7 197.2,166.7 197.2,163.5 188.8,163.5 			"/>
			<polygon class="st0" points="200.4,152.7 200.4,166.6 204.9,166.6 204.9,151.2 198.9,151.2 			"/>
			<path class="st0" d="M222.1,153.2c-0.1-0.4-0.3-0.8-0.6-1.1c-0.3-0.3-0.6-0.5-0.9-0.7c-0.3-0.2-0.7-0.2-1.1-0.2h-9
				c-0.4,0-0.8,0.1-1.1,0.2c-0.3,0.2-0.6,0.4-0.9,0.7c-0.2,0.3-0.5,0.7-0.6,1.1c-0.2,0.4-0.2,0.8-0.2,1.3v8.7c0,0.5,0.1,0.9,0.2,1.3
				c0.1,0.4,0.4,0.8,0.6,1.1c0.3,0.3,0.6,0.5,0.9,0.7c0.3,0.2,0.7,0.3,1.1,0.3h9c0.4,0,0.8-0.1,1.1-0.3c0.3-0.2,0.6-0.4,0.9-0.7
				c0.3-0.3,0.5-0.7,0.6-1.1c0.2-0.4,0.2-0.8,0.2-1.3v-8.7C222.3,154.1,222.3,153.6,222.1,153.2z M217.9,162.6
				c0,0.3-0.1,0.5-0.2,0.6c-0.2,0.2-0.4,0.3-0.6,0.3h-4.2c-0.2,0-0.4-0.1-0.5-0.3c-0.2-0.2-0.2-0.4-0.2-0.6V155l0-0.3v-0.4h5
				c0.2,0,0.4,0.1,0.6,0.2c0.1,0.2,0.2,0.4,0.2,0.7V162.6z"/>
			<path class="st0" d="M87.5,151.2v11.4c0,0.3-0.1,0.5-0.2,0.7c-0.1,0.2-0.3,0.3-0.5,0.3l-4.3,0v-0.9c0,0,0,0,0,0v-11.4h-6l1.6,1.5
				v10.6c0,0.5,0.1,0.9,0.2,1.3c0.2,0.4,0.4,0.8,0.6,1.1c0.3,0.3,0.6,0.5,0.9,0.7c0.3,0.2,0.7,0.3,1.1,0.3h8.3
				c0.4,0,0.8-0.1,1.1-0.3c0.3-0.2,0.6-0.4,0.9-0.7c0.3-0.3,0.5-0.7,0.6-1.1c0.1-0.4,0.2-0.8,0.2-1.3v-12H87.5z"/>
		</g>
	</g>
	<g>
		<g>
			<g>
				<g>
					<path class="st0" d="M456.3,138.3c0,0,0-0.1,0.1-0.1v-0.6c0,0,0-0.1-0.1-0.1c0,0,0,0-0.1,0c0,0-0.1,0-0.1,0h-1.2l0.1,0.1v1.2
						h0.4v-0.3h0.4c0,0,0.1,0,0.1,0.1l0.1,0.3h0.4L456.3,138.3z M456,138C456,138,455.9,138,456,138l-0.5,0.1v-0.4l0,0h0.5
						c0,0,0,0,0,0.1V138z"/>
					<path class="st0" d="M455.7,136.6c-0.8,0-1.4,0.6-1.4,1.4c0,0.8,0.6,1.4,1.4,1.4c0.8,0,1.4-0.6,1.4-1.4
						C457.1,137.2,456.5,136.6,455.7,136.6z M455.7,139.1c-0.6,0-1-0.5-1-1c0-0.6,0.5-1.1,1-1.1c0.6,0,1.1,0.5,1.1,1.1
						C456.7,138.6,456.3,139.1,455.7,139.1z"/>
				</g>
				<polygon class="st0" points="441.9,133.9 441.9,65.6 414.6,65.6 414.6,65.6 404.8,65.6 404.8,65.6 395.6,65.6 395.6,65.6 
					395.6,65.6 395.6,66.1 395.5,130.4 386.5,130.4 386.5,65.6 377.2,65.6 370.3,65.6 377.2,71.1 377.2,139.4 404.8,139.4 
					404.8,75.5 414.6,75.5 414.6,139.4 423.8,139.4 423.8,75.5 433.4,75.5 433.4,139.4 441.9,139.4 441.9,139.4 448.8,139.4 				"/>
			</g>
		</g>
		<g>
			<polygon class="st0" points="368.7,173.6 373.2,173.6 373.2,158.2 368.7,158.2 368.7,158.2 364.6,166 360.6,158.2 360.6,158.2 
				354.5,158.2 356.1,159.6 356.1,173.6 360.6,173.6 360.6,164.2 364.6,171.7 368.7,164.2 			"/>
			<path class="st0" d="M390.9,165.1c0.1-0.4,0.2-0.8,0.2-1.2v-2.4c0-0.5-0.1-0.9-0.2-1.3c-0.1-0.4-0.3-0.8-0.6-1.1
				c-0.3-0.3-0.5-0.5-0.9-0.7c-0.3-0.2-0.7-0.2-1.1-0.2h-13.5l1.6,1.4v14H389c0.4,0,0.7-0.1,1.1-0.3c0.4-0.2,0.7-0.4,0.9-0.7
				c0.3-0.3,0.5-0.7,0.6-1.1c0.1-0.4,0.2-0.8,0.2-1.3v-2.7C391.8,166.6,391.5,165.8,390.9,165.1z M385.9,161.3
				c0.2,0,0.4,0.1,0.6,0.2c0.1,0.2,0.2,0.4,0.2,0.7v1.1c0,0.3-0.1,0.5-0.2,0.7c-0.2,0.2-0.4,0.3-0.6,0.3h-5v-2.4l0-0.5H385.9z
				 M387.3,169.5c0,0.3-0.1,0.5-0.2,0.6c-0.1,0.2-0.3,0.3-0.5,0.3h-5.6v-3.2h5.6c0.2,0,0.4,0.1,0.5,0.3c0.2,0.2,0.2,0.4,0.2,0.7
				V169.5z"/>
			<path class="st0" d="M409,168.6c0.2-0.3,0.4-0.7,0.5-1.1c0.1-0.4,0.2-0.8,0.2-1.2v-4.8c0-0.5-0.1-0.9-0.2-1.3
				c-0.1-0.4-0.4-0.8-0.6-1.1c-0.3-0.3-0.6-0.5-0.9-0.7c-0.3-0.2-0.7-0.2-1.1-0.2h-13.5l1.6,1.4v14h4.5v-3.9h4.5
				c0.4,0,0.6,0.2,0.7,0.6l1.1,3.3h4.8L409,168.6z M405.2,165.6c0,0.3-0.1,0.5-0.2,0.7c-0.1,0.2-0.3,0.3-0.5,0.3h-5v-4.9l0-0.5h5
				c0.2,0,0.4,0.1,0.5,0.2c0.2,0.2,0.2,0.4,0.2,0.7V165.6z"/>
			<polygon class="st0" points="413.1,159.6 413.1,173.6 425.9,173.6 425.9,170.4 417.5,170.4 417.5,167.7 423.6,167.7 423.6,164.6 
				417.5,164.6 417.5,161.8 417.5,161.3 425.9,161.3 425.9,158.2 411.5,158.2 			"/>
			<polygon class="st0" points="442,173.5 442,170.4 433.6,170.4 433.6,158.2 427.6,158.2 429.2,159.6 429.2,173.5 			"/>
			<polygon class="st0" points="449.7,158.2 443.7,158.2 445.3,159.7 445.3,173.6 458.1,173.6 458.1,170.5 449.7,170.5 			"/>
			<polygon class="st0" points="461.4,159.6 461.4,173.6 465.8,173.6 465.8,158.2 459.8,158.2 			"/>
			<path class="st0" d="M483,160.2c-0.1-0.4-0.3-0.8-0.6-1.1c-0.3-0.3-0.6-0.5-0.9-0.7c-0.3-0.2-0.7-0.2-1.1-0.2h-9
				c-0.4,0-0.8,0.1-1.1,0.2c-0.3,0.2-0.6,0.4-0.9,0.7c-0.2,0.3-0.5,0.7-0.6,1.1c-0.2,0.4-0.2,0.8-0.2,1.3v8.7c0,0.5,0.1,0.9,0.2,1.3
				c0.1,0.4,0.4,0.8,0.6,1.1c0.3,0.3,0.6,0.5,0.9,0.7c0.3,0.2,0.7,0.3,1.1,0.3h9c0.4,0,0.8-0.1,1.1-0.3c0.3-0.2,0.6-0.4,0.9-0.7
				c0.3-0.3,0.5-0.7,0.6-1.1c0.2-0.4,0.2-0.8,0.2-1.3v-8.7C483.2,161,483.2,160.6,483,160.2z M478.8,169.5c0,0.3-0.1,0.5-0.2,0.6
				c-0.2,0.2-0.4,0.3-0.6,0.3h-4.2c-0.2,0-0.4-0.1-0.5-0.3c-0.2-0.2-0.2-0.4-0.2-0.6V162l0-0.3v-0.4h5c0.2,0,0.4,0.1,0.6,0.2
				c0.1,0.2,0.2,0.4,0.2,0.7V169.5z"/>
			<path class="st0" d="M348.4,158.2v11.4c0,0.3-0.1,0.5-0.2,0.7c-0.1,0.2-0.3,0.3-0.5,0.3l-4.3,0v-0.9c0,0,0,0,0,0v-11.4h-6
				l1.6,1.5v10.6c0,0.5,0.1,0.9,0.2,1.3c0.2,0.4,0.4,0.8,0.6,1.1c0.3,0.3,0.6,0.5,0.9,0.7c0.3,0.2,0.7,0.3,1.1,0.3h8.3
				c0.4,0,0.8-0.1,1.1-0.3c0.3-0.2,0.6-0.4,0.9-0.7c0.3-0.3,0.5-0.7,0.6-1.1c0.1-0.4,0.2-0.8,0.2-1.3v-12H348.4z"/>
		</g>
	</g>
	<g>
		<g>
			<polygon class="st0" points="252.1,308.3 257.2,308.3 257.2,290.7 252.1,290.7 252.1,290.7 247.5,299.6 242.8,290.7 242.8,290.7 
				235.9,290.7 237.7,292.3 237.7,308.3 242.8,308.3 242.8,297.6 247.5,306.1 252.1,297.6 			"/>
			<path class="st0" d="M277.5,298.6c0.2-0.5,0.2-1,0.2-1.4v-2.7c0-0.5-0.1-1-0.3-1.5c-0.2-0.5-0.4-0.9-0.7-1.2
				c-0.3-0.3-0.6-0.6-1-0.8c-0.4-0.2-0.8-0.3-1.2-0.3h-15.4l1.8,1.6v15.9h14.3c0.4,0,0.8-0.1,1.2-0.3c0.4-0.2,0.8-0.5,1-0.8
				c0.3-0.3,0.5-0.8,0.7-1.2c0.2-0.5,0.2-1,0.2-1.5v-3C278.4,300.3,278.1,299.4,277.5,298.6z M271.7,294.2c0.2,0,0.5,0.1,0.6,0.3
				c0.2,0.2,0.3,0.5,0.3,0.8v1.2c0,0.3-0.1,0.5-0.3,0.8c-0.2,0.2-0.4,0.3-0.6,0.3H266v-2.8l0-0.5H271.7z M273.3,303.7
				c0,0.3-0.1,0.5-0.3,0.7c-0.2,0.2-0.3,0.3-0.6,0.3H266v-3.6h6.4c0.3,0,0.5,0.1,0.6,0.3c0.2,0.2,0.3,0.5,0.3,0.8V303.7z"/>
			<path class="st0" d="M298.1,302.6c0.3-0.4,0.5-0.8,0.6-1.2c0.2-0.5,0.2-0.9,0.2-1.4v-5.5c0-0.5-0.1-1-0.3-1.5
				c-0.2-0.5-0.4-0.9-0.7-1.2c-0.3-0.3-0.6-0.6-1-0.8c-0.4-0.2-0.8-0.3-1.3-0.3h-15.4l1.8,1.6v15.9h5.1v-4.5h5.2
				c0.4,0,0.7,0.2,0.8,0.7l1.3,3.8h5.5L298.1,302.6z M293.8,299.2c0,0.3-0.1,0.6-0.3,0.8c-0.2,0.2-0.4,0.3-0.6,0.3h-5.7v-5.6l0-0.5
				h5.7c0.2,0,0.5,0.1,0.6,0.3c0.2,0.2,0.3,0.5,0.3,0.8V299.2z"/>
			<polygon class="st0" points="302.7,292.4 302.7,308.3 317.4,308.3 317.4,304.7 307.8,304.7 307.8,301.6 314.8,301.6 314.8,298 
				307.8,298 307.8,294.8 307.8,294.2 317.4,294.2 317.4,290.7 300.9,290.7 			"/>
			<polygon class="st0" points="335.8,308.2 335.8,304.7 326.2,304.7 326.2,290.7 319.3,290.7 321.1,292.3 321.1,308.2 			"/>
			<polygon class="st0" points="344.6,290.7 337.7,290.7 339.5,292.4 339.5,308.3 354.2,308.3 354.2,304.7 344.6,304.7 			"/>
			<polygon class="st0" points="357.9,292.4 357.9,308.3 363,308.3 363,290.7 356.1,290.7 			"/>
			<path class="st0" d="M382.6,293c-0.2-0.5-0.4-0.9-0.7-1.2c-0.3-0.3-0.6-0.6-1-0.8c-0.4-0.2-0.8-0.3-1.3-0.3h-10.3
				c-0.5,0-0.9,0.1-1.3,0.3c-0.4,0.2-0.7,0.5-1,0.8c-0.3,0.3-0.5,0.8-0.7,1.2c-0.2,0.5-0.3,1-0.3,1.5v9.9c0,0.5,0.1,1,0.3,1.5
				c0.2,0.5,0.4,0.9,0.7,1.2c0.3,0.3,0.6,0.6,1,0.8c0.4,0.2,0.8,0.3,1.3,0.3h10.3c0.5,0,0.9-0.1,1.3-0.3c0.4-0.2,0.7-0.5,1-0.8
				c0.3-0.3,0.5-0.8,0.7-1.2c0.2-0.5,0.3-1,0.3-1.5v-9.9C382.9,293.9,382.8,293.4,382.6,293z M377.8,303.6c0,0.3-0.1,0.5-0.2,0.7
				c-0.2,0.2-0.4,0.3-0.6,0.3h-4.8c-0.2,0-0.5-0.1-0.6-0.3c-0.2-0.2-0.3-0.4-0.3-0.7V295l0-0.3v-0.5h5.7c0.2,0,0.5,0.1,0.6,0.3
				c0.2,0.2,0.2,0.5,0.2,0.8V303.6z"/>
			<path class="st0" d="M228.9,290.7v13c0,0.3-0.1,0.5-0.2,0.7c-0.2,0.2-0.4,0.3-0.6,0.3l-4.9,0v-1c0,0,0,0,0,0v-13h-6.9l1.8,1.7
				v12.1c0,0.5,0.1,1,0.3,1.5c0.2,0.5,0.4,0.9,0.7,1.2c0.3,0.3,0.6,0.6,1,0.8c0.4,0.2,0.8,0.3,1.3,0.3h9.5c0.4,0,0.9-0.1,1.2-0.3
				c0.4-0.2,0.7-0.5,1-0.8c0.3-0.3,0.5-0.7,0.7-1.2c0.2-0.5,0.2-1,0.2-1.5v-13.7H228.9z"/>
		</g>
		<g>
			<g>
				<g>
					<path class="st0" d="M201.5,317.9C201.5,317.9,201.5,317.9,201.5,317.9l0-0.4c0,0,0,0,0-0.1c0,0,0,0,0,0c0,0,0,0-0.1,0h-0.6
						l0.1,0.1v0.6h0.2V318h0.2c0,0,0,0,0,0l0.1,0.1h0.2L201.5,317.9z M201.3,317.8C201.3,317.8,201.3,317.8,201.3,317.8l-0.3,0v-0.2
						l0,0h0.3c0,0,0,0,0,0V317.8z"/>
					<path class="st0" d="M201.2,317.1c-0.4,0-0.7,0.3-0.7,0.7c0,0.4,0.3,0.7,0.7,0.7c0.4,0,0.7-0.3,0.7-0.7
						C201.9,317.4,201.6,317.1,201.2,317.1z M201.2,318.3c-0.3,0-0.5-0.2-0.5-0.5c0-0.3,0.2-0.6,0.5-0.6c0.3,0,0.6,0.2,0.6,0.6
						C201.7,318.1,201.5,318.3,201.2,318.3z"/>
				</g>
				<polygon class="st1" points="194.1,315.7 194.1,280.4 180,280.4 180,280.4 174.9,280.4 174.9,280.4 170.2,280.4 170.2,280.4 
					170.2,280.4 170.2,280.7 170.1,313.9 165.5,313.9 165.5,280.4 160.7,280.4 157.1,280.4 160.7,283.3 160.7,318.5 174.9,318.5 
					174.9,285.6 180,285.6 180,318.5 184.7,318.5 184.7,285.6 189.7,285.6 189.7,318.5 194.1,318.5 194.1,318.5 197.6,318.5 				"/>
			</g>
		</g>
	</g>
	<g>
		<g>
			<polygon class="st0" points="250.9,394.3 256,394.3 256,376.7 250.9,376.7 250.9,376.7 246.2,385.6 241.6,376.7 241.6,376.7 
				234.7,376.7 236.5,378.3 236.5,394.3 241.6,394.3 241.6,383.6 246.2,392.1 250.9,383.6 			"/>
			<path class="st0" d="M276.2,384.6c0.2-0.5,0.2-1,0.2-1.4v-2.7c0-0.5-0.1-1-0.3-1.5c-0.2-0.5-0.4-0.9-0.7-1.2
				c-0.3-0.3-0.6-0.6-1-0.8c-0.4-0.2-0.8-0.3-1.2-0.3h-15.4l1.8,1.6v15.9H274c0.4,0,0.8-0.1,1.2-0.3c0.4-0.2,0.8-0.5,1-0.8
				c0.3-0.3,0.5-0.8,0.7-1.2c0.2-0.5,0.2-1,0.2-1.5v-3C277.2,386.3,276.9,385.4,276.2,384.6z M270.5,380.2c0.2,0,0.5,0.1,0.6,0.3
				c0.2,0.2,0.3,0.5,0.3,0.8v1.2c0,0.3-0.1,0.5-0.3,0.8c-0.2,0.2-0.4,0.3-0.6,0.3h-5.7v-2.8l0-0.5H270.5z M272.1,389.7
				c0,0.3-0.1,0.5-0.3,0.7c-0.2,0.2-0.3,0.3-0.6,0.3h-6.4v-3.6h6.4c0.3,0,0.5,0.1,0.6,0.3c0.2,0.2,0.3,0.5,0.3,0.8V389.7z"/>
			<path class="st0" d="M296.9,388.6c0.3-0.4,0.5-0.8,0.6-1.2c0.2-0.5,0.2-0.9,0.2-1.4v-5.5c0-0.5-0.1-1-0.3-1.5
				c-0.2-0.5-0.4-0.9-0.7-1.2c-0.3-0.3-0.6-0.6-1-0.8c-0.4-0.2-0.8-0.3-1.3-0.3h-15.4l1.8,1.6v15.9h5.1v-4.5h5.2
				c0.4,0,0.7,0.2,0.8,0.7l1.3,3.8h5.5L296.9,388.6z M292.6,385.2c0,0.3-0.1,0.6-0.3,0.8c-0.2,0.2-0.4,0.3-0.6,0.3H286v-5.6l0-0.5
				h5.7c0.2,0,0.5,0.1,0.6,0.3c0.2,0.2,0.3,0.5,0.3,0.8V385.2z"/>
			<polygon class="st0" points="301.5,378.4 301.5,394.3 316.2,394.3 316.2,390.7 306.6,390.7 306.6,387.6 313.6,387.6 313.6,384 
				306.6,384 306.6,380.8 306.6,380.2 316.2,380.2 316.2,376.7 299.7,376.7 			"/>
			<polygon class="st0" points="334.6,394.2 334.6,390.7 325,390.7 325,376.7 318.1,376.7 319.9,378.3 319.9,394.2 			"/>
			<polygon class="st0" points="343.4,376.7 336.5,376.7 338.3,378.4 338.3,394.3 353,394.3 353,390.7 343.4,390.7 			"/>
			<polygon class="st0" points="356.7,378.4 356.7,394.3 361.8,394.3 361.8,376.7 354.9,376.7 			"/>
			<path class="st0" d="M381.4,379c-0.2-0.5-0.4-0.9-0.7-1.2c-0.3-0.3-0.6-0.6-1-0.8c-0.4-0.2-0.8-0.3-1.3-0.3h-10.3
				c-0.5,0-0.9,0.1-1.3,0.3c-0.4,0.2-0.7,0.5-1,0.8c-0.3,0.3-0.5,0.8-0.7,1.2c-0.2,0.5-0.3,1-0.3,1.5v9.9c0,0.5,0.1,1,0.3,1.5
				c0.2,0.5,0.4,0.9,0.7,1.2c0.3,0.3,0.6,0.6,1,0.8c0.4,0.2,0.8,0.3,1.3,0.3h10.3c0.5,0,0.9-0.1,1.3-0.3c0.4-0.2,0.7-0.5,1-0.8
				c0.3-0.3,0.5-0.8,0.7-1.2c0.2-0.5,0.3-1,0.3-1.5v-9.9C381.7,379.9,381.6,379.4,381.4,379z M376.6,389.6c0,0.3-0.1,0.5-0.2,0.7
				c-0.2,0.2-0.4,0.3-0.6,0.3h-4.8c-0.2,0-0.5-0.1-0.6-0.3c-0.2-0.2-0.3-0.4-0.3-0.7V381l0-0.3v-0.5h5.7c0.2,0,0.5,0.1,0.6,0.3
				c0.2,0.2,0.2,0.5,0.2,0.8V389.6z"/>
			<path class="st0" d="M227.7,376.7v13c0,0.3-0.1,0.5-0.2,0.7c-0.2,0.2-0.4,0.3-0.6,0.3l-4.9,0v-1c0,0,0,0,0,0v-13h-6.9l1.8,1.7
				v12.1c0,0.5,0.1,1,0.3,1.5c0.2,0.5,0.4,0.9,0.7,1.2c0.3,0.3,0.6,0.6,1,0.8c0.4,0.2,0.8,0.3,1.3,0.3h9.5c0.4,0,0.9-0.1,1.2-0.3
				c0.4-0.2,0.7-0.5,1-0.8c0.3-0.3,0.5-0.7,0.7-1.2c0.2-0.5,0.2-1,0.2-1.5v-13.7H227.7z"/>
		</g>
		<g>
			<g>
				<g>
					<path class="st0" d="M200.2,403.9C200.3,403.9,200.3,403.9,200.2,403.9l0-0.4c0,0,0,0,0-0.1c0,0,0,0,0,0c0,0,0,0-0.1,0h-0.6
						l0.1,0.1v0.6h0.2V404h0.2c0,0,0,0,0,0l0.1,0.1h0.2L200.2,403.9z M200.1,403.8C200.1,403.8,200.1,403.8,200.1,403.8l-0.3,0v-0.2
						l0,0h0.3c0,0,0,0,0,0V403.8z"/>
					<path class="st0" d="M199.9,403.1c-0.4,0-0.7,0.3-0.7,0.7c0,0.4,0.3,0.7,0.7,0.7c0.4,0,0.7-0.3,0.7-0.7
						C200.7,403.4,200.3,403.1,199.9,403.1z M199.9,404.3c-0.3,0-0.5-0.2-0.5-0.5c0-0.3,0.2-0.6,0.5-0.6c0.3,0,0.6,0.2,0.6,0.6
						C200.5,404.1,200.2,404.3,199.9,404.3z"/>
				</g>
				<polygon class="st0" points="192.8,401.7 192.8,366.4 178.8,366.4 178.8,366.4 173.7,366.4 173.7,366.4 169,366.4 169,366.4 
					169,366.4 169,366.7 168.9,399.9 164.3,399.9 164.3,366.4 159.5,366.4 155.9,366.4 159.5,369.3 159.5,404.5 173.7,404.5 
					173.7,371.6 178.8,371.6 178.8,404.5 183.5,404.5 183.5,371.6 188.4,371.6 188.4,404.5 192.8,404.5 192.8,404.5 196.4,404.5 
									"/>
			</g>
		</g>
	</g>
</g>
</svg>
