<?xml version="1.0" encoding="utf-8"?>
<!-- Generator: Adobe Illustrator 21.0.0, SVG Export Plug-In . SVG Version: 6.00 Build 0)  -->
<svg version="1.1" xmlns="http://www.w3.org/2000/svg" xmlns:xlink="http://www.w3.org/1999/xlink" x="0px" y="0px"
	 viewBox="0 0 566.9 566.9" style="enable-background:new 0 0 566.9 566.9;" xml:space="preserve">
<style type="text/css">
	.st0{fill:#23252D;}
	.st1{fill:#FF3600;}
	.st2{fill:#FFFFFF;}
</style>
<g id="Light_bg">
</g>
<g id="Dark">
	<rect class="st0" width="566.9" height="566.9"/>
</g>
<g id="Слой_3">
	<g>
		<g>
			<g>
				<g>
					<path class="st2" d="M196.2,124.3c0,0,0-0.1,0.1-0.1v-0.6c0,0,0-0.1-0.1-0.1c0,0,0,0-0.1,0c0,0-0.1,0-0.1,0h-1.2l0.1,0.1v1.2
						h0.4v-0.3h0.4c0,0,0.1,0,0.1,0.1l0.1,0.3h0.4L196.2,124.3z M195.9,124C195.9,124.1,195.8,124.1,195.9,124l-0.5,0.1v-0.4l0,0
						h0.5c0,0,0,0,0,0.1V124z"/>
					<path class="st2" d="M195.6,122.7c-0.8,0-1.4,0.6-1.4,1.4c0,0.8,0.6,1.4,1.4,1.4c0.8,0,1.4-0.6,1.4-1.4
						C197,123.3,196.4,122.7,195.6,122.7z M195.6,125.1c-0.6,0-1-0.5-1-1c0-0.6,0.5-1.1,1-1.1c0.6,0,1.1,0.5,1.1,1.1
						C196.6,124.6,196.2,125.1,195.6,125.1z"/>
				</g>
				<polygon class="st1" points="181.8,120 181.8,51.6 154.5,51.6 154.5,51.6 144.7,51.6 144.7,51.6 135.5,51.6 135.5,51.6 
					135.5,51.6 135.5,52.2 135.4,116.5 126.4,116.5 126.4,51.6 117.1,51.6 110.2,51.6 117.1,57.1 117.1,125.5 144.7,125.5 
					144.7,61.6 154.5,61.6 154.5,125.5 163.6,125.5 163.6,61.6 173.2,61.6 173.2,125.5 181.8,125.5 181.8,125.5 188.7,125.5 				"/>
			</g>
		</g>
		<g>
			<polygon class="st2" points="108.6,159.6 113.1,159.6 113.1,144.2 108.6,144.2 108.6,144.2 104.5,152.1 100.5,144.2 100.5,144.2 
				94.4,144.2 96,145.7 96,159.6 100.5,159.6 100.5,150.3 104.5,157.8 108.6,150.3 			"/>
			<path class="st2" d="M130.8,151.2c0.1-0.4,0.2-0.8,0.2-1.2v-2.4c0-0.5-0.1-0.9-0.2-1.3c-0.1-0.4-0.3-0.8-0.6-1.1
				c-0.3-0.3-0.5-0.5-0.9-0.7c-0.3-0.2-0.7-0.2-1.1-0.2h-13.5l1.6,1.4v14h12.5c0.4,0,0.7-0.1,1.1-0.3c0.4-0.2,0.7-0.4,0.9-0.7
				c0.3-0.3,0.5-0.7,0.6-1.1c0.1-0.4,0.2-0.8,0.2-1.3v-2.7C131.6,152.7,131.4,151.9,130.8,151.2z M125.8,147.3
				c0.2,0,0.4,0.1,0.6,0.2c0.1,0.2,0.2,0.4,0.2,0.7v1.1c0,0.3-0.1,0.5-0.2,0.7c-0.2,0.2-0.4,0.3-0.6,0.3h-5v-2.4l0-0.5H125.8z
				 M127.2,155.6c0,0.3-0.1,0.5-0.2,0.6c-0.1,0.2-0.3,0.3-0.5,0.3h-5.6v-3.2h5.6c0.2,0,0.4,0.1,0.5,0.3c0.2,0.2,0.2,0.4,0.2,0.7
				V155.6z"/>
			<path class="st2" d="M148.9,154.7c0.2-0.3,0.4-0.7,0.5-1.1c0.1-0.4,0.2-0.8,0.2-1.2v-4.8c0-0.5-0.1-0.9-0.2-1.3
				c-0.1-0.4-0.4-0.8-0.6-1.1c-0.3-0.3-0.6-0.5-0.9-0.7c-0.3-0.2-0.7-0.2-1.1-0.2h-13.5l1.6,1.4v14h4.5v-3.9h4.5
				c0.4,0,0.6,0.2,0.7,0.6l1.1,3.3h4.8L148.9,154.7z M145.1,151.7c0,0.3-0.1,0.5-0.2,0.7c-0.1,0.2-0.3,0.3-0.5,0.3h-5v-4.9l0-0.5h5
				c0.2,0,0.4,0.1,0.5,0.2c0.2,0.2,0.2,0.4,0.2,0.7V151.7z"/>
			<polygon class="st2" points="152.9,145.7 152.9,159.6 165.8,159.6 165.8,156.5 157.4,156.5 157.4,153.7 163.5,153.7 163.5,150.7 
				157.4,150.7 157.4,147.8 157.4,147.3 165.8,147.3 165.8,144.2 151.4,144.2 			"/>
			<polygon class="st2" points="181.9,159.6 181.9,156.5 173.5,156.5 173.5,144.2 167.5,144.2 169,145.7 169,159.6 			"/>
			<polygon class="st2" points="189.6,144.3 183.6,144.3 185.1,145.7 185.1,159.7 198,159.7 198,156.5 189.6,156.5 			"/>
			<polygon class="st2" points="201.2,145.7 201.2,159.6 205.7,159.6 205.7,144.2 199.7,144.2 			"/>
			<path class="st2" d="M222.9,146.2c-0.1-0.4-0.3-0.8-0.6-1.1c-0.3-0.3-0.6-0.5-0.9-0.7c-0.3-0.2-0.7-0.2-1.1-0.2h-9
				c-0.4,0-0.8,0.1-1.1,0.2c-0.3,0.2-0.6,0.4-0.9,0.7c-0.2,0.3-0.5,0.7-0.6,1.1c-0.2,0.4-0.2,0.8-0.2,1.3v8.7c0,0.5,0.1,0.9,0.2,1.3
				c0.1,0.4,0.4,0.8,0.6,1.1c0.3,0.3,0.6,0.5,0.9,0.7c0.3,0.2,0.7,0.3,1.1,0.3h9c0.4,0,0.8-0.1,1.1-0.3c0.3-0.2,0.6-0.4,0.9-0.7
				c0.3-0.3,0.5-0.7,0.6-1.1c0.2-0.4,0.2-0.8,0.2-1.3v-8.7C223.1,147.1,223,146.6,222.9,146.2z M218.6,155.6c0,0.3-0.1,0.5-0.2,0.6
				c-0.2,0.2-0.4,0.3-0.6,0.3h-4.2c-0.2,0-0.4-0.1-0.5-0.3c-0.2-0.2-0.2-0.4-0.2-0.6V148l0-0.3v-0.4h5c0.2,0,0.4,0.1,0.6,0.2
				c0.1,0.2,0.2,0.4,0.2,0.7V155.6z"/>
			<path class="st2" d="M88.3,144.2v11.4c0,0.3-0.1,0.5-0.2,0.7c-0.1,0.2-0.3,0.3-0.5,0.3l-4.3,0v-0.9c0,0,0,0,0,0v-11.4h-6l1.6,1.5
				v10.6c0,0.5,0.1,0.9,0.2,1.3c0.2,0.4,0.4,0.8,0.6,1.1c0.3,0.3,0.6,0.5,0.9,0.7c0.3,0.2,0.7,0.3,1.1,0.3h8.3
				c0.4,0,0.8-0.1,1.1-0.3c0.3-0.2,0.6-0.4,0.9-0.7c0.3-0.3,0.5-0.7,0.6-1.1c0.1-0.4,0.2-0.8,0.2-1.3v-12H88.3z"/>
		</g>
	</g>
	<g>
		<g>
			<g>
				<g>
					<path class="st2" d="M457.1,131.2c0,0,0-0.1,0.1-0.1v-0.6c0,0,0-0.1-0.1-0.1c0,0,0,0-0.1,0c0,0-0.1,0-0.1,0h-1.2l0.1,0.1v1.2
						h0.4v-0.3h0.4c0,0,0.1,0,0.1,0.1l0.1,0.3h0.4L457.1,131.2z M456.8,131C456.8,131,456.7,131,456.8,131l-0.5,0.1v-0.4l0,0h0.5
						c0,0,0,0,0,0.1V131z"/>
					<path class="st2" d="M456.5,129.6c-0.8,0-1.4,0.6-1.4,1.4c0,0.8,0.6,1.4,1.4,1.4c0.8,0,1.4-0.6,1.4-1.4
						C457.9,130.2,457.3,129.6,456.5,129.6z M456.5,132c-0.6,0-1-0.5-1-1c0-0.6,0.5-1.1,1-1.1c0.6,0,1.1,0.5,1.1,1.1
						C457.5,131.6,457.1,132,456.5,132z"/>
				</g>
				<polygon class="st2" points="442.7,126.9 442.7,58.5 415.4,58.5 415.4,58.6 405.6,58.6 405.6,58.5 396.4,58.5 396.4,58.6 
					396.4,58.6 396.4,59.1 396.3,123.4 387.3,123.4 387.3,58.5 378,58.5 371.1,58.5 378,64.1 378,132.4 405.6,132.4 405.6,68.5 
					415.4,68.5 415.4,132.4 424.5,132.4 424.5,68.5 434.2,68.5 434.2,132.4 442.7,132.4 442.7,132.4 449.6,132.4 				"/>
			</g>
		</g>
		<g>
			<polygon class="st2" points="369.5,166.5 374,166.5 374,151.2 369.5,151.2 369.5,151.2 365.4,159 361.4,151.2 361.4,151.2 
				355.3,151.2 356.9,152.6 356.9,166.5 361.4,166.5 361.4,157.2 365.4,164.7 369.5,157.2 			"/>
			<path class="st2" d="M391.7,158.1c0.1-0.4,0.2-0.8,0.2-1.2v-2.4c0-0.5-0.1-0.9-0.2-1.3c-0.1-0.4-0.3-0.8-0.6-1.1
				c-0.3-0.3-0.5-0.5-0.9-0.7c-0.3-0.2-0.7-0.2-1.1-0.2h-13.5l1.6,1.4v14h12.5c0.4,0,0.7-0.1,1.1-0.3c0.4-0.2,0.7-0.4,0.9-0.7
				c0.3-0.3,0.5-0.7,0.6-1.1c0.1-0.4,0.2-0.8,0.2-1.3v-2.7C392.6,159.6,392.3,158.8,391.7,158.1z M386.7,154.3
				c0.2,0,0.4,0.1,0.6,0.2c0.1,0.2,0.2,0.4,0.2,0.7v1.1c0,0.3-0.1,0.5-0.2,0.7c-0.2,0.2-0.4,0.3-0.6,0.3h-5v-2.4l0-0.5H386.7z
				 M388.1,162.5c0,0.3-0.1,0.5-0.2,0.6c-0.1,0.2-0.3,0.3-0.5,0.3h-5.6v-3.2h5.6c0.2,0,0.4,0.1,0.5,0.3c0.2,0.2,0.2,0.4,0.2,0.7
				V162.5z"/>
			<path class="st2" d="M409.8,161.6c0.2-0.3,0.4-0.7,0.5-1.1c0.1-0.4,0.2-0.8,0.2-1.2v-4.8c0-0.5-0.1-0.9-0.2-1.3
				c-0.1-0.4-0.4-0.8-0.6-1.1c-0.3-0.3-0.6-0.5-0.9-0.7c-0.3-0.2-0.7-0.2-1.1-0.2h-13.5l1.6,1.4v14h4.5v-3.9h4.5
				c0.4,0,0.6,0.2,0.7,0.6l1.1,3.3h4.8L409.8,161.6z M406,158.6c0,0.3-0.1,0.5-0.2,0.7c-0.1,0.2-0.3,0.3-0.5,0.3h-5v-4.9l0-0.5h5
				c0.2,0,0.4,0.1,0.5,0.2c0.2,0.2,0.2,0.4,0.2,0.7V158.6z"/>
			<polygon class="st2" points="413.9,152.6 413.9,166.6 426.7,166.6 426.7,163.4 418.3,163.4 418.3,160.7 424.4,160.7 424.4,157.6 
				418.3,157.6 418.3,154.7 418.3,154.3 426.7,154.3 426.7,151.2 412.3,151.2 			"/>
			<polygon class="st2" points="442.8,166.5 442.8,163.4 434.4,163.4 434.4,151.1 428.4,151.1 430,152.6 430,166.5 			"/>
			<polygon class="st2" points="450.5,151.2 444.5,151.2 446.1,152.7 446.1,166.6 458.9,166.6 458.9,163.5 450.5,163.5 			"/>
			<polygon class="st2" points="462.1,152.6 462.1,166.6 466.6,166.6 466.6,151.2 460.6,151.2 			"/>
			<path class="st2" d="M483.8,153.2c-0.1-0.4-0.3-0.8-0.6-1.1c-0.3-0.3-0.6-0.5-0.9-0.7c-0.3-0.2-0.7-0.2-1.1-0.2h-9
				c-0.4,0-0.8,0.1-1.1,0.2c-0.3,0.2-0.6,0.4-0.9,0.7c-0.2,0.3-0.5,0.7-0.6,1.1c-0.2,0.4-0.2,0.8-0.2,1.3v8.7c0,0.5,0.1,0.9,0.2,1.3
				c0.1,0.4,0.4,0.8,0.6,1.1c0.3,0.3,0.6,0.5,0.9,0.7c0.3,0.2,0.7,0.3,1.1,0.3h9c0.4,0,0.8-0.1,1.1-0.3c0.3-0.2,0.6-0.4,0.9-0.7
				c0.3-0.3,0.5-0.7,0.6-1.1c0.2-0.4,0.2-0.8,0.2-1.3v-8.7C484,154,484,153.6,483.8,153.2z M479.6,162.5c0,0.3-0.1,0.5-0.2,0.6
				c-0.2,0.2-0.4,0.3-0.6,0.3h-4.2c-0.2,0-0.4-0.1-0.5-0.3c-0.2-0.2-0.2-0.4-0.2-0.6V155l0-0.3v-0.4h5c0.2,0,0.4,0.1,0.6,0.2
				c0.1,0.2,0.2,0.4,0.2,0.7V162.5z"/>
			<path class="st2" d="M349.2,151.2v11.4c0,0.3-0.1,0.5-0.2,0.7c-0.1,0.2-0.3,0.3-0.5,0.3l-4.3,0v-0.9c0,0,0,0,0,0v-11.4h-6
				l1.6,1.5v10.6c0,0.5,0.1,0.9,0.2,1.3c0.2,0.4,0.4,0.8,0.6,1.1c0.3,0.3,0.6,0.5,0.9,0.7c0.3,0.2,0.7,0.3,1.1,0.3h8.3
				c0.4,0,0.8-0.1,1.1-0.3c0.3-0.2,0.6-0.4,0.9-0.7c0.3-0.3,0.5-0.7,0.6-1.1c0.1-0.4,0.2-0.8,0.2-1.3v-12H349.2z"/>
		</g>
	</g>
	<g>
		<g>
			<polygon class="st2" points="254.8,322.1 259.9,322.1 259.9,304.5 254.8,304.5 254.8,304.5 250.1,313.4 245.5,304.5 245.5,304.5 
				238.6,304.5 240.4,306.1 240.4,322.1 245.5,322.1 245.5,311.4 250.1,319.9 254.8,311.4 			"/>
			<path class="st2" d="M280.1,312.4c0.2-0.5,0.2-1,0.2-1.4v-2.7c0-0.5-0.1-1-0.3-1.5c-0.2-0.5-0.4-0.9-0.7-1.2
				c-0.3-0.3-0.6-0.6-1-0.8c-0.4-0.2-0.8-0.3-1.2-0.3h-15.4l1.8,1.6v15.9h14.3c0.4,0,0.8-0.1,1.2-0.3c0.4-0.2,0.8-0.5,1-0.8
				c0.3-0.3,0.5-0.8,0.7-1.2c0.2-0.5,0.2-1,0.2-1.5v-3C281.1,314.1,280.8,313.2,280.1,312.4z M274.4,308c0.2,0,0.5,0.1,0.6,0.3
				c0.2,0.2,0.3,0.5,0.3,0.8v1.2c0,0.3-0.1,0.5-0.3,0.8c-0.2,0.2-0.4,0.3-0.6,0.3h-5.7v-2.8l0-0.5H274.4z M276,317.5
				c0,0.3-0.1,0.5-0.3,0.7c-0.2,0.2-0.3,0.3-0.6,0.3h-6.4v-3.6h6.4c0.3,0,0.5,0.1,0.6,0.3c0.2,0.2,0.3,0.5,0.3,0.8V317.5z"/>
			<path class="st2" d="M300.8,316.4c0.3-0.4,0.5-0.8,0.6-1.2c0.2-0.5,0.2-0.9,0.2-1.4v-5.5c0-0.5-0.1-1-0.3-1.5
				c-0.2-0.5-0.4-0.9-0.7-1.2c-0.3-0.3-0.6-0.6-1-0.8c-0.4-0.2-0.8-0.3-1.3-0.3H283l1.8,1.6v15.9h5.1v-4.5h5.2
				c0.4,0,0.7,0.2,0.8,0.7l1.3,3.8h5.5L300.8,316.4z M296.5,313c0,0.3-0.1,0.6-0.3,0.8c-0.2,0.2-0.4,0.3-0.6,0.3h-5.7v-5.6l0-0.5
				h5.7c0.2,0,0.5,0.1,0.6,0.3c0.2,0.2,0.3,0.5,0.3,0.8V313z"/>
			<polygon class="st2" points="305.4,306.2 305.4,322.1 320.1,322.1 320.1,318.5 310.5,318.5 310.5,315.4 317.5,315.4 317.5,311.8 
				310.5,311.8 310.5,308.6 310.5,308 320.1,308 320.1,304.5 303.6,304.5 			"/>
			<polygon class="st2" points="338.5,322 338.5,318.5 328.9,318.5 328.9,304.5 322,304.5 323.8,306.1 323.8,322 			"/>
			<polygon class="st2" points="347.3,304.5 340.4,304.5 342.2,306.2 342.2,322.1 356.9,322.1 356.9,318.5 347.3,318.5 			"/>
			<polygon class="st2" points="360.6,306.2 360.6,322.1 365.7,322.1 365.7,304.5 358.8,304.5 			"/>
			<path class="st2" d="M385.3,306.8c-0.2-0.5-0.4-0.9-0.7-1.2c-0.3-0.3-0.6-0.6-1-0.8c-0.4-0.2-0.8-0.3-1.3-0.3H372
				c-0.5,0-0.9,0.1-1.3,0.3c-0.4,0.2-0.7,0.5-1,0.8c-0.3,0.3-0.5,0.8-0.7,1.2c-0.2,0.5-0.3,1-0.3,1.5v9.9c0,0.5,0.1,1,0.3,1.5
				c0.2,0.5,0.4,0.9,0.7,1.2c0.3,0.3,0.6,0.6,1,0.8c0.4,0.2,0.8,0.3,1.3,0.3h10.3c0.5,0,0.9-0.1,1.3-0.3c0.4-0.2,0.7-0.5,1-0.8
				c0.3-0.3,0.5-0.8,0.7-1.2c0.2-0.5,0.3-1,0.3-1.5v-9.9C385.6,307.7,385.5,307.2,385.3,306.8z M380.5,317.4c0,0.3-0.1,0.5-0.2,0.7
				c-0.2,0.2-0.4,0.3-0.6,0.3h-4.8c-0.2,0-0.5-0.1-0.6-0.3c-0.2-0.2-0.3-0.4-0.3-0.7v-8.6l0-0.3V308h5.7c0.2,0,0.5,0.1,0.6,0.3
				c0.2,0.2,0.2,0.5,0.2,0.8V317.4z"/>
			<path class="st2" d="M231.6,304.5v13c0,0.3-0.1,0.5-0.2,0.7c-0.2,0.2-0.4,0.3-0.6,0.3l-4.9,0v-1c0,0,0,0,0,0v-13H219l1.8,1.7
				v12.1c0,0.5,0.1,1,0.3,1.5c0.2,0.5,0.4,0.9,0.7,1.2c0.3,0.3,0.6,0.6,1,0.8c0.4,0.2,0.8,0.3,1.3,0.3h9.5c0.4,0,0.9-0.1,1.2-0.3
				c0.4-0.2,0.7-0.5,1-0.8c0.3-0.3,0.5-0.7,0.7-1.2c0.2-0.5,0.2-1,0.2-1.5v-13.7H231.6z"/>
		</g>
		<g>
			<g>
				<g>
					<path class="st2" d="M204.1,331.7C204.2,331.7,204.2,331.7,204.1,331.7l0-0.4c0,0,0,0,0-0.1c0,0,0,0,0,0c0,0,0,0-0.1,0h-0.6
						l0.1,0.1v0.6h0.2v-0.2h0.2c0,0,0,0,0,0l0.1,0.1h0.2L204.1,331.7z M204,331.6C204,331.6,204,331.6,204,331.6l-0.3,0v-0.2l0,0
						h0.3c0,0,0,0,0,0V331.6z"/>
					<path class="st2" d="M203.8,330.9c-0.4,0-0.7,0.3-0.7,0.7c0,0.4,0.3,0.7,0.7,0.7c0.4,0,0.7-0.3,0.7-0.7
						C204.6,331.2,204.2,330.9,203.8,330.9z M203.8,332.2c-0.3,0-0.5-0.2-0.5-0.5c0-0.3,0.2-0.6,0.5-0.6c0.3,0,0.6,0.2,0.6,0.6
						C204.4,331.9,204.1,332.2,203.8,332.2z"/>
				</g>
				<polygon class="st1" points="196.7,329.5 196.7,294.2 182.7,294.2 182.7,294.2 177.6,294.2 177.6,294.2 172.9,294.2 
					172.9,294.2 172.9,294.2 172.9,294.5 172.8,327.7 168.2,327.7 168.2,294.2 163.4,294.2 159.8,294.2 163.4,297.1 163.4,332.3 
					177.6,332.3 177.6,299.4 182.7,299.4 182.7,332.3 187.4,332.3 187.4,299.4 192.3,299.4 192.3,332.3 196.7,332.3 196.7,332.3 
					200.3,332.3 				"/>
			</g>
		</g>
	</g>
	<g>
		<g>
			<polygon class="st2" points="253.6,408.1 258.7,408.1 258.7,390.5 253.6,390.5 253.6,390.5 248.9,399.4 244.3,390.5 244.3,390.5 
				237.4,390.5 239.2,392.1 239.2,408.1 244.3,408.1 244.3,397.4 248.9,405.9 253.6,397.4 			"/>
			<path class="st2" d="M278.9,398.4c0.2-0.5,0.2-1,0.2-1.4v-2.7c0-0.5-0.1-1-0.3-1.5c-0.2-0.5-0.4-0.9-0.7-1.2
				c-0.3-0.3-0.6-0.6-1-0.8c-0.4-0.2-0.8-0.3-1.2-0.3h-15.4l1.8,1.6v15.9h14.3c0.4,0,0.8-0.1,1.2-0.3c0.4-0.2,0.8-0.5,1-0.8
				c0.3-0.3,0.5-0.8,0.7-1.2c0.2-0.5,0.2-1,0.2-1.5v-3C279.9,400.1,279.6,399.2,278.9,398.4z M273.2,394c0.2,0,0.5,0.1,0.6,0.3
				c0.2,0.2,0.3,0.5,0.3,0.8v1.2c0,0.3-0.1,0.5-0.3,0.8c-0.2,0.2-0.4,0.3-0.6,0.3h-5.7v-2.8l0-0.5H273.2z M274.8,403.5
				c0,0.3-0.1,0.5-0.3,0.7c-0.2,0.2-0.3,0.3-0.6,0.3h-6.4v-3.6h6.4c0.3,0,0.5,0.1,0.6,0.3c0.2,0.2,0.3,0.5,0.3,0.8V403.5z"/>
			<path class="st2" d="M299.5,402.4c0.3-0.4,0.5-0.8,0.6-1.2c0.2-0.5,0.2-0.9,0.2-1.4v-5.5c0-0.5-0.1-1-0.3-1.5
				c-0.2-0.5-0.4-0.9-0.7-1.2c-0.3-0.3-0.6-0.6-1-0.8c-0.4-0.2-0.8-0.3-1.3-0.3h-15.4l1.8,1.6v15.9h5.1v-4.5h5.2
				c0.4,0,0.7,0.2,0.8,0.7l1.3,3.8h5.5L299.5,402.4z M295.3,399c0,0.3-0.1,0.6-0.3,0.8c-0.2,0.2-0.4,0.3-0.6,0.3h-5.7v-5.6l0-0.5
				h5.7c0.2,0,0.5,0.1,0.6,0.3c0.2,0.2,0.3,0.5,0.3,0.8V399z"/>
			<polygon class="st2" points="304.2,392.2 304.2,408.1 318.9,408.1 318.9,404.5 309.3,404.5 309.3,401.4 316.3,401.4 316.3,397.8 
				309.3,397.8 309.3,394.6 309.3,394 318.9,394 318.9,390.5 302.4,390.5 			"/>
			<polygon class="st2" points="337.3,408 337.3,404.5 327.7,404.5 327.7,390.5 320.8,390.5 322.6,392.1 322.6,408 			"/>
			<polygon class="st2" points="346.1,390.5 339.2,390.5 341,392.2 341,408.1 355.6,408.1 355.6,404.5 346.1,404.5 			"/>
			<polygon class="st2" points="359.4,392.2 359.4,408.1 364.5,408.1 364.5,390.5 357.6,390.5 			"/>
			<path class="st2" d="M384.1,392.8c-0.2-0.5-0.4-0.9-0.7-1.2c-0.3-0.3-0.6-0.6-1-0.8c-0.4-0.2-0.8-0.3-1.3-0.3h-10.3
				c-0.5,0-0.9,0.1-1.3,0.3c-0.4,0.2-0.7,0.5-1,0.8c-0.3,0.3-0.5,0.8-0.7,1.2c-0.2,0.5-0.3,1-0.3,1.5v9.9c0,0.5,0.1,1,0.3,1.5
				c0.2,0.5,0.4,0.9,0.7,1.2c0.3,0.3,0.6,0.6,1,0.8c0.4,0.2,0.8,0.3,1.3,0.3h10.3c0.5,0,0.9-0.1,1.3-0.3c0.4-0.2,0.7-0.5,1-0.8
				c0.3-0.3,0.5-0.8,0.7-1.2c0.2-0.5,0.3-1,0.3-1.5v-9.9C384.3,393.7,384.3,393.2,384.1,392.8z M379.2,403.4c0,0.3-0.1,0.5-0.2,0.7
				c-0.2,0.2-0.4,0.3-0.6,0.3h-4.8c-0.2,0-0.5-0.1-0.6-0.3c-0.2-0.2-0.3-0.4-0.3-0.7v-8.6l0-0.3V394h5.7c0.2,0,0.5,0.1,0.6,0.3
				c0.2,0.2,0.2,0.5,0.2,0.8V403.4z"/>
			<path class="st2" d="M230.4,390.5v13c0,0.3-0.1,0.5-0.2,0.7c-0.2,0.2-0.4,0.3-0.6,0.3l-4.9,0v-1c0,0,0,0,0,0v-13h-6.9l1.8,1.7
				v12.1c0,0.5,0.1,1,0.3,1.5c0.2,0.5,0.4,0.9,0.7,1.2c0.3,0.3,0.6,0.6,1,0.8c0.4,0.2,0.8,0.3,1.3,0.3h9.5c0.4,0,0.9-0.1,1.2-0.3
				c0.4-0.2,0.7-0.5,1-0.8c0.3-0.3,0.5-0.7,0.7-1.2c0.2-0.5,0.2-1,0.2-1.5v-13.7H230.4z"/>
		</g>
		<g>
			<g>
				<g>
					<path class="st2" d="M202.9,417.7C202.9,417.7,202.9,417.7,202.9,417.7l0-0.4c0,0,0,0,0-0.1c0,0,0,0,0,0c0,0,0,0-0.1,0h-0.6
						l0.1,0.1v0.6h0.2v-0.2h0.2c0,0,0,0,0,0l0.1,0.1h0.2L202.9,417.7z M202.8,417.6C202.8,417.6,202.8,417.6,202.8,417.6l-0.3,0
						v-0.2l0,0h0.3c0,0,0,0,0,0V417.6z"/>
					<path class="st2" d="M202.6,416.9c-0.4,0-0.7,0.3-0.7,0.7c0,0.4,0.3,0.7,0.7,0.7c0.4,0,0.7-0.3,0.7-0.7
						C203.3,417.2,203,416.9,202.6,416.9z M202.6,418.2c-0.3,0-0.5-0.2-0.5-0.5c0-0.3,0.2-0.6,0.5-0.6c0.3,0,0.6,0.2,0.6,0.6
						C203.2,417.9,202.9,418.2,202.6,418.2z"/>
				</g>
				<polygon class="st2" points="195.5,415.5 195.5,380.2 181.4,380.2 181.4,380.2 176.4,380.2 176.4,380.2 171.6,380.2 
					171.6,380.2 171.6,380.2 171.6,380.5 171.6,413.7 166.9,413.7 166.9,380.2 162.1,380.2 158.6,380.2 162.1,383.1 162.1,418.3 
					176.4,418.3 176.4,385.4 181.4,385.4 181.4,418.3 186.1,418.3 186.1,385.4 191.1,385.4 191.1,418.3 195.5,418.3 195.5,418.3 
					199.1,418.3 				"/>
			</g>
		</g>
	</g>
</g>
</svg>
